HIERARCHY
ROOT Pelvis
{
	OFFSET 0.000000 0.941512 0.000000
	CHANNELS 6 Xposition Yposition Zposition Zrotation Yrotation Xrotation 
	JOINT Pelvis_L_Hip
	{
		OFFSET 0.000000 0.000000 0.000000
		CHANNELS 3 Zrotation Yrotation Xrotation
		JOINT L_Hip
		{
			OFFSET 0.062321 -0.080322 -0.016990
			CHANNELS 3 Zrotation Yrotation Xrotation
			JOINT L_Knee
			{
				OFFSET 0.093051 -0.381305 -0.029784
				CHANNELS 3 Zrotation Yrotation Xrotation
				JOINT L_Ankle
				{
					OFFSET -0.010371 -0.431000 -0.033614
					CHANNELS 3 Zrotation Yrotation Xrotation
					End Site #name: L_Foot
					{
						OFFSET 0.069299 -0.038670 0.119418
					}
				}
			}
		}
	}
	JOINT Pelvis_R_Hip
	{
		OFFSET 0.000000 0.000000 0.000000
		CHANNELS 3 Zrotation Yrotation Xrotation
		JOINT R_Hip
		{
			OFFSET -0.055334 -0.094904 -0.002373
			CHANNELS 3 Zrotation Yrotation Xrotation
			JOINT R_Knee
			{
				OFFSET -0.064207 -0.384370 -0.019592
				CHANNELS 3 Zrotation Yrotation Xrotation
				JOINT R_Ankle
				{
					OFFSET 0.025418 -0.419734 -0.065953
					CHANNELS 3 Zrotation Yrotation Xrotation
					End Site #name: R_Foot
					{
						OFFSET -0.057233 -0.039888 0.132134
					}
				}
			}
		}
	}
	JOINT Pelvis_Spine1
	{
		OFFSET 0.000000 0.000000 0.000000
		CHANNELS 3 Zrotation Yrotation Xrotation
		JOINT Spine1
		{
			OFFSET -0.005562 0.124093 -0.043360
			CHANNELS 3 Zrotation Yrotation Xrotation
			JOINT Spine2
			{
				OFFSET 0.012244 0.139499 0.029894
				CHANNELS 3 Zrotation Yrotation Xrotation
				JOINT Spine3
				{
					OFFSET -0.002556 0.056561 0.009225
					CHANNELS 3 Zrotation Yrotation Xrotation
					JOINT Spine3_Neck
					{
						OFFSET 0.000000 0.000000 0.000000
						CHANNELS 3 Zrotation Yrotation Xrotation
						JOINT Neck
						{
							OFFSET -0.005205 0.217920 -0.024551
							CHANNELS 3 Zrotation Yrotation Xrotation
							End Site #name: Head
							{
								OFFSET 0.002365 0.091850 0.046637
							}
						}
					}
					JOINT Spine3_L_Collar
					{
						OFFSET 0.000000 0.000000 0.000000
						CHANNELS 3 Zrotation Yrotation Xrotation
						JOINT L_Collar
						{
							OFFSET 0.072225 0.116603 -0.009480
							CHANNELS 3 Zrotation Yrotation Xrotation
							JOINT L_Shoulder
							{
								OFFSET 0.115937 -0.058643 -0.021018
								CHANNELS 3 Zrotation Yrotation Xrotation
								JOINT L_Elbow
								{
									OFFSET 0.021994 -0.254722 -0.024492
									CHANNELS 3 Zrotation Yrotation Xrotation
									End Site #name: L_Wrist
									{
										OFFSET 0.048810 -0.240214 0.103329
									}
								}
							}
						}
					}
					JOINT Spine3_R_Collar
					{
						OFFSET 0.000000 0.000000 0.000000
						CHANNELS 3 Zrotation Yrotation Xrotation
						JOINT R_Collar
						{
							OFFSET -0.073372 0.120704 -0.024611
							CHANNELS 3 Zrotation Yrotation Xrotation
							JOINT R_Shoulder
							{
								OFFSET -0.108089 -0.054969 -0.020504
								CHANNELS 3 Zrotation Yrotation Xrotation
								JOINT R_Elbow
								{
									OFFSET -0.033684 -0.260739 0.009889
									CHANNELS 3 Zrotation Yrotation Xrotation
									End Site #name: R_Wrist
									{
										OFFSET -0.067980 -0.232763 0.118463
									}
								}
							}
						}
					}
				}
			}
		}
	}
}
MOTION
Frames: 5
Frame Time: 0.041667
0.000000 0.955833 0.000000 -4.722592 -0.142093 7.873969 0.000000 0.000000 0.000000 1.340748 -2.388115 -10.010196 3.115468 -0.398260 2.955211 -0.733662 2.044934 2.485786 0.000000 0.000000 0.000000 5.032020 1.562156 -8.783843 -1.221002 0.214626 0.317871 2.777104 1.351475 5.258094 0.000000 0.000000 0.000000 5.535047 -0.672077 -4.255805 -1.063091 -0.314497 -9.101127 4.272684 1.495128 6.891517 0.000000 0.000000 0.000000 -3.729155 1.877475 -4.955374 0.000000 0.000000 0.000000 19.840726 -6.042574 -0.395703 -21.642756 2.431351 0.141841 1.706670 2.746691 11.352069 0.000000 0.000000 0.000000 -24.368015 7.139751 -0.659448 23.641712 -2.859350 10.100713 -0.225224 -0.748575 2.219978 
-0.000102 0.955738 0.000194 -4.720240 -0.146458 7.893849 0.000000 0.000000 0.000000 1.348153 -2.388189 -10.010635 3.114793 -0.397996 2.953450 -0.731597 2.047721 2.484177 0.000000 0.000000 0.000000 5.038617 1.564368 -8.794514 -1.222892 0.215569 0.327431 2.768654 1.350496 5.239906 0.000000 0.000000 0.000000 5.534578 -0.663513 -4.317679 -1.060798 -0.313345 -9.079498 4.278133 1.491534 6.895617 0.000000 0.000000 0.000000 -3.711330 1.869680 -4.907463 0.000000 0.000000 0.000000 19.790396 -6.032786 -0.396821 -21.592867 2.414309 0.100834 1.699881 2.736965 11.320486 0.000000 0.000000 0.000000 -24.338363 7.116551 -0.642675 23.600012 -2.843276 10.062120 -0.202763 -0.729270 2.191055 
-0.000277 0.955651 0.000400 -4.716248 -0.161132 7.895536 0.000000 0.000000 0.000000 1.351965 -2.384572 -9.994625 3.116440 -0.397877 2.947738 -0.724409 2.050075 2.473309 0.000000 0.000000 0.000000 5.042228 1.563194 -8.789089 -1.206634 0.212711 0.321778 2.758072 1.352742 5.214858 0.000000 0.000000 0.000000 5.533841 -0.659575 -4.345343 -1.063679 -0.312194 -9.064920 4.274074 1.481236 6.892502 0.000000 0.000000 0.000000 -3.687340 1.858928 -4.857856 0.000000 0.000000 0.000000 19.731252 -6.025664 -0.402814 -21.526643 2.393260 0.053277 1.672248 2.715727 11.238566 0.000000 0.000000 0.000000 -24.292047 7.094843 -0.627611 23.559612 -2.828816 10.028846 -0.167879 -0.700024 2.145948 
-0.000540 0.955566 0.000557 -4.723445 -0.156665 7.837536 0.000000 0.000000 0.000000 1.373146 -2.370900 -9.933732 3.103961 -0.397510 2.964736 -0.688854 2.065762 2.419879 0.000000 0.000000 0.000000 5.068506 1.551535 -8.731175 -1.206660 0.216523 0.377324 2.710547 1.366812 5.099974 0.000000 0.000000 0.000000 5.514968 -0.655785 -4.342887 -1.037983 -0.308125 -8.943662 4.272814 1.453509 6.921544 0.000000 0.000000 0.000000 -3.650964 1.841997 -4.840291 0.000000 0.000000 0.000000 19.642078 -6.051076 -0.437041 -21.405649 2.383641 0.064985 1.538947 2.577537 10.692728 0.000000 0.000000 0.000000 -24.200252 7.061775 -0.609964 23.437078 -2.798134 9.961905 -0.156186 -0.668603 2.055913 
-0.000899 0.955527 0.000509 -4.723858 -0.122805 7.728252 0.000000 0.000000 0.000000 1.410711 -2.355057 -9.862657 3.070841 -0.396727 3.019245 -0.668607 2.076280 2.389381 0.000000 0.000000 0.000000 5.118608 1.543734 -8.687982 -1.232225 0.231214 0.524447 2.639052 1.313564 4.985462 0.000000 0.000000 0.000000 5.445845 -0.654093 -4.251966 -1.033909 -0.298071 -8.736300 4.285200 1.386929 6.958510 0.000000 0.000000 0.000000 -3.493369 1.766222 -4.983812 0.000000 0.000000 0.000000 19.612694 -6.161689 -0.527654 -21.220147 2.410249 0.231950 0.975618 2.138235 9.249014 0.000000 0.000000 0.000000 -24.084657 7.036424 -0.600397 23.299587 -2.757302 9.866675 -0.170768 -0.627790 1.887954 
